<mxfile host="app.diagrams.net" modified="2023-10-26T08:49:38.794Z" agent="Mozilla/5.0 (Windows NT 10.0; Win64; x64) AppleWebKit/537.36 (KHTML, like Gecko) Chrome/118.0.0.0 Safari/537.36" version="22.0.8" etag="ocbQQOy_WucjX93yTCyP" type="github">
  <diagram name="Halaman-1" id="c7C-0Q6X9B2PwNsVK8x5">
    <mxGraphModel>
      <root>
        <mxCell id="0" />
        <mxCell id="1" parent="0" />
      </root>
    </mxGraphModel>
  </diagram>
</mxfile>
